<?xml version="1.0" standalone="no"?>
<!DOCTYPE svg PUBLIC "-//W3C//DTD SVG 20010904//EN"
 "http://www.w3.org/TR/2001/REC-SVG-20010904/DTD/svg10.dtd">
<svg version="1.0" xmlns="http://www.w3.org/2000/svg"
 width="580.000000pt" height="580.000000pt" viewBox="0 0 580.000000 580.000000"
 preserveAspectRatio="xMidYMid meet">
<metadata>
Created by potrace 1.14, written by Peter Selinger 2001-2017
</metadata>
<g transform="translate(0.000000,580.000000) scale(0.100000,-0.100000)"
fill="#000000" stroke="none">
<path d="M3126 4654 c-20 -14 -36 -31 -36 -39 0 -8 -4 -15 -8 -15 -5 0 -9 -6
-9 -12 0 -7 -3 -33 -6 -58 -3 -25 -9 -85 -12 -135 -3 -49 -8 -115 -11 -145 -2
-30 -7 -93 -10 -140 -3 -47 -7 -114 -10 -150 -10 -140 -11 -240 -3 -240 5 0 6
-7 3 -15 -4 -8 -1 -15 7 -15 7 0 9 -3 6 -7 -4 -3 -2 -12 3 -19 22 -25 28 -132
16 -269 -4 -38 -8 -92 -10 -118 -2 -26 -6 -50 -9 -53 -3 -3 -1 -19 3 -35 5
-16 5 -31 0 -34 -5 -3 -8 -13 -8 -23 1 -16 -7 -137 -17 -242 -2 -25 -7 -90
-10 -145 -4 -55 -9 -120 -11 -145 -1 -25 -6 -85 -9 -135 -11 -167 -13 -190
-20 -260 -3 -38 -8 -91 -10 -117 -2 -27 -7 -52 -10 -58 -3 -5 -1 -10 5 -10 6
0 9 -4 6 -9 -7 -11 -23 -208 -29 -356 -1 -22 -6 -43 -12 -47 -6 -5 -6 -8 2 -8
8 0 9 -9 3 -30 -9 -31 -7 -257 3 -300 3 -14 8 -41 11 -60 13 -83 21 -105 30
-79 3 8 18 55 34 104 17 50 32 104 35 120 9 52 16 62 47 61 17 -1 30 -4 30 -7
0 -3 14 -4 30 -3 17 1 30 -1 30 -6 0 -4 8 -7 18 -7 9 1 46 -3 82 -8 36 -4 74
-9 85 -11 11 -1 20 -3 20 -4 0 -3 99 -9 230 -15 197 -9 285 -11 285 -5 0 3 57
6 128 7 129 1 199 8 262 23 19 5 51 12 70 15 45 9 65 13 65 15 0 2 16 6 50 14
11 2 21 5 23 6 1 2 7 4 12 5 6 1 12 4 15 5 8 4 17 7 53 15 17 4 32 12 32 17 0
5 4 7 9 3 5 -3 12 -1 16 5 4 6 11 8 16 5 5 -4 9 -1 9 4 0 6 3 10 8 9 10 -4
145 62 153 74 3 5 10 9 15 9 5 -1 40 19 77 44 37 25 70 45 74 45 6 0 43 29
117 93 58 51 202 192 184 181 -10 -6 -10 -4 1 9 7 9 18 14 24 10 6 -3 7 -1 3
5 -4 7 -2 12 3 12 6 0 10 3 8 8 -1 4 10 21 25 37 15 16 25 32 22 37 -3 4 -1 8
5 8 28 0 174 291 197 393 1 4 2 8 4 10 2 2 6 20 14 57 6 25 12 52 21 93 15 64
27 407 14 407 -3 0 -5 15 -6 33 -1 29 -7 72 -17 122 -2 11 -7 39 -11 62 -4 24
-11 45 -15 48 -5 3 -7 12 -4 19 3 8 0 17 -5 21 -6 3 -9 11 -6 16 4 5 1 9 -5 9
-6 0 -9 4 -6 8 5 8 -35 116 -48 129 -3 3 -6 15 -6 25 0 10 -5 18 -10 18 -6 0
-9 3 -8 8 3 12 -35 82 -45 82 -5 0 -7 7 -3 15 3 8 1 15 -4 15 -6 0 -10 7 -10
15 0 8 -4 15 -9 15 -5 0 -16 15 -24 33 -9 17 -24 41 -35 52 -10 12 -21 26 -23
32 -12 32 -188 219 -259 273 -18 14 -38 31 -46 38 -8 7 -14 10 -14 5 0 -4 -4
-3 -8 4 -9 14 -80 63 -91 63 -5 0 -14 7 -21 15 -7 8 -16 12 -21 9 -5 -3 -9 -1
-9 4 0 6 -25 20 -55 33 -30 12 -55 27 -55 33 0 5 -3 6 -6 3 -4 -4 -19 0 -33 7
-37 20 -112 48 -161 61 -3 1 -12 5 -20 8 -8 4 -26 9 -40 11 -14 3 -25 5 -25 6
0 3 -38 11 -66 14 -15 2 -32 7 -38 11 -7 3 -32 7 -56 7 -25 0 -45 3 -45 7 0 9
-368 6 -430 -3 -25 -4 -50 -12 -56 -17 -8 -7 -14 -6 -18 0 -5 7 -15 7 -29 1
-12 -5 -60 -19 -107 -30 -47 -11 -94 -25 -105 -30 -11 -4 -41 -16 -67 -25 -26
-10 -47 -20 -46 -24 0 -3 -1 -8 -2 -11 -7 -17 -7 -141 1 -146 5 -3 8 0 7 6 -2
7 4 14 12 15 13 3 129 45 170 62 21 9 6 5 160 40 8 2 35 6 60 9 46 7 71 11 80
14 15 5 58 4 78 -2 12 -4 22 -4 22 0 0 9 156 9 166 0 3 -4 14 -3 24 2 10 5 20
7 24 3 3 -3 25 -7 48 -9 55 -4 143 -18 151 -24 1 -1 11 -3 22 -5 67 -12 91
-18 95 -25 3 -4 22 -10 43 -14 20 -4 37 -11 37 -17 0 -6 4 -8 9 -5 5 3 34 -7
64 -23 31 -16 57 -27 60 -25 2 3 10 -2 17 -11 7 -8 17 -15 22 -15 5 0 29 -13
53 -30 24 -16 46 -30 50 -30 26 0 305 -254 305 -278 0 -6 8 -17 18 -24 10 -7
32 -35 50 -63 17 -27 36 -55 41 -61 10 -13 91 -168 91 -176 0 -3 8 -23 17 -44
9 -22 17 -41 18 -44 1 -3 7 -18 14 -34 6 -16 9 -31 6 -34 -3 -3 2 -16 11 -30
8 -13 13 -26 10 -29 -3 -4 -1 -12 6 -20 6 -7 12 -30 14 -51 5 -57 12 -114 18
-142 3 -13 0 -27 -7 -32 -6 -4 -7 -8 -2 -8 16 0 8 -250 -11 -355 -8 -41 -12
-60 -14 -60 -1 0 -3 -10 -6 -23 -2 -12 -12 -47 -23 -76 -10 -30 -16 -57 -13
-60 3 -3 0 -6 -6 -6 -7 0 -12 -5 -12 -11 0 -35 -140 -276 -178 -306 -9 -7 -13
-13 -8 -13 4 0 -3 -11 -16 -24 -13 -13 -49 -51 -80 -85 -32 -34 -58 -58 -58
-55 0 3 -13 -8 -29 -25 -16 -17 -34 -31 -40 -31 -6 0 -11 -4 -11 -8 0 -10 -96
-82 -110 -82 -5 0 -10 -4 -10 -10 0 -5 -7 -10 -15 -10 -8 0 -15 -5 -15 -11 0
-5 -4 -8 -9 -5 -5 3 -14 -1 -21 -9 -7 -8 -19 -15 -26 -15 -8 0 -14 -4 -14 -10
0 -5 -9 -10 -19 -10 -11 0 -21 -4 -23 -8 -3 -7 -62 -35 -163 -77 -126 -53
-277 -87 -455 -102 -78 -7 -500 -10 -506 -4 -2 3 -30 6 -62 7 -31 2 -84 6
-117 10 -33 3 -72 7 -87 7 -16 0 -28 3 -28 7 0 3 -18 6 -40 5 -22 -1 -40 2
-40 5 0 3 -10 6 -22 7 -13 1 -36 4 -53 8 -16 4 -37 7 -45 8 -8 0 -18 5 -22 10
-6 11 -3 109 7 204 3 26 7 86 10 133 3 47 7 110 10 140 3 30 7 95 10 145 8
130 15 198 20 203 2 2 0 15 -6 29 -5 13 -5 22 -1 19 4 -2 9 21 11 52 5 99 7
117 15 130 4 7 2 12 -4 12 -6 0 -9 4 -5 9 3 5 8 47 11 93 8 105 7 102 19 110
6 5 6 8 -1 8 -7 0 -9 15 -7 38 2 20 6 64 8 97 2 33 4 60 5 60 1 0 3 27 5 60 2
33 6 103 10 155 4 52 9 120 10 150 2 30 4 55 5 55 1 0 3 23 5 51 2 28 11 68
21 90 9 21 16 42 16 47 -1 4 3 7 8 7 11 0 31 43 33 73 1 9 4 17 8 17 4 0 7 17
7 38 0 20 3 67 6 105 14 153 18 204 21 252 1 28 6 88 9 135 13 163 15 290 5
317 -11 30 -56 72 -79 75 -81 8 -99 6 -134 -18z m-112 -3020 c10 -27 7 -64 -6
-61 -19 3 -29 -129 -12 -142 29 -20 4 -67 -27 -50 -20 10 -20 16 -5 217 3 44
37 69 50 36z"/>
<path d="M1224 4441 c-2 -2 -25 -5 -51 -6 -47 -3 -87 -9 -148 -22 -16 -3 -37
-7 -45 -8 -8 -1 -22 -5 -30 -8 -8 -3 -51 -18 -95 -33 -44 -15 -83 -32 -87 -38
-4 -6 -8 -7 -8 -2 0 4 -11 1 -25 -8 -13 -9 -29 -16 -34 -16 -9 0 -114 -67
-154 -99 -57 -45 -194 -191 -179 -191 4 0 2 -4 -4 -8 -23 -15 -79 -134 -91
-192 -16 -79 -19 -169 -8 -235 4 -22 7 -46 8 -52 0 -7 5 -13 10 -13 6 0 8 -3
4 -6 -3 -4 0 -19 9 -35 8 -16 11 -29 8 -29 -4 0 -1 -8 7 -17 8 -10 20 -28 27
-40 6 -13 18 -33 25 -44 33 -58 240 -239 272 -239 5 0 16 -7 25 -15 10 -9 28
-18 40 -20 13 -3 27 -10 32 -17 4 -7 8 -10 8 -5 0 4 12 -1 27 -10 15 -10 27
-17 28 -15 0 4 33 -6 60 -19 11 -5 30 -11 43 -14 12 -2 26 -6 30 -9 5 -3 19
-7 33 -10 13 -3 35 -8 49 -11 14 -3 32 -8 40 -10 8 -2 15 -4 15 -5 0 -3 95
-21 135 -25 19 -2 35 -4 35 -5 0 -2 32 -6 110 -15 65 -7 102 -12 145 -21 54
-10 65 -12 65 -14 0 -1 11 -4 25 -6 37 -6 53 -10 70 -16 8 -3 35 -11 60 -17
25 -7 75 -24 112 -37 37 -14 70 -25 74 -24 4 1 10 -2 13 -7 3 -4 24 -17 46
-28 102 -50 263 -184 249 -206 -3 -5 -1 -9 4 -9 9 0 28 -35 44 -85 16 -47 17
-165 2 -223 -8 -30 -12 -58 -8 -63 3 -5 0 -9 -5 -9 -6 0 -11 -7 -11 -15 0 -38
-101 -197 -151 -240 -17 -14 -36 -22 -42 -18 -7 4 -19 8 -27 10 -8 1 -23 7
-35 12 -17 9 -66 30 -85 36 -3 1 -14 5 -25 9 -11 5 -56 21 -100 38 -44 16 -88
34 -97 39 -10 5 -22 9 -27 9 -5 0 -25 7 -45 15 -20 8 -39 16 -43 16 -5 0 -12
4 -18 8 -5 5 -37 16 -70 26 -33 9 -69 21 -80 25 -27 12 -138 51 -150 55 -5 1
-17 5 -25 8 -16 6 -66 17 -75 17 -3 0 -22 7 -42 15 -21 8 -49 17 -63 19 -14 3
-25 5 -25 6 0 1 -7 3 -15 5 -8 1 -35 8 -60 15 -25 7 -56 14 -70 15 -14 2 -43
7 -65 10 -22 4 -55 8 -72 8 -18 1 -33 4 -33 8 0 3 -55 5 -123 4 -152 -2 -200
-20 -249 -97 -29 -44 -38 -131 -18 -168 7 -14 13 -27 13 -30 -1 -12 21 -50 28
-50 5 0 6 -7 3 -15 -4 -9 0 -15 10 -15 9 0 16 -5 16 -11 0 -6 26 -37 58 -68
70 -66 112 -103 112 -96 0 3 9 -4 19 -14 11 -11 35 -27 55 -36 20 -10 36 -21
36 -26 0 -5 5 -9 11 -9 7 0 33 -13 59 -29 27 -16 50 -28 53 -25 2 2 10 -2 17
-11 7 -8 21 -15 31 -15 10 0 20 -4 24 -9 3 -5 19 -12 35 -16 17 -4 30 -10 30
-14 0 -4 8 -8 18 -9 26 -3 44 -8 76 -21 16 -6 38 -13 50 -16 11 -2 21 -4 21
-5 0 -2 33 -9 65 -15 14 -2 25 -4 25 -5 0 -11 174 -15 275 -6 77 6 87 8 177
27 29 5 56 11 60 11 5 1 23 7 41 15 17 7 32 11 32 9 0 -3 12 1 27 9 15 8 30
12 35 9 4 -3 8 -1 8 4 0 8 37 23 55 22 3 0 14 9 25 20 12 12 25 18 30 15 6 -4
10 -1 10 4 0 6 7 11 15 11 9 0 18 7 21 15 4 8 10 13 14 10 4 -3 19 4 33 15 14
11 30 20 36 20 6 0 11 4 11 9 0 7 40 8 48 1 1 -1 5 -3 10 -5 4 -1 15 -5 24 -9
9 -4 22 -9 30 -10 7 -2 24 -8 38 -13 44 -19 95 -38 105 -39 6 0 17 -4 25 -7
40 -15 137 -46 155 -49 11 -2 23 -7 26 -11 3 -4 22 -9 42 -10 21 -1 37 -4 37
-8 0 -3 33 -11 73 -18 39 -7 81 -14 92 -16 11 -2 20 -4 20 -5 0 -6 56 -6 60 0
2 3 7 27 10 53 5 34 3 51 -7 61 -12 11 -130 45 -178 50 -9 1 -20 4 -25 7 -6 3
-17 5 -25 4 -8 0 -17 3 -20 7 -4 4 -23 9 -43 10 -20 2 -37 6 -37 11 0 4 -9 7
-20 7 -10 0 -32 5 -47 11 -15 6 -37 15 -48 20 -17 6 -89 30 -105 34 -44 12
-115 48 -103 52 7 3 13 9 13 15 0 6 16 30 35 53 19 23 31 45 28 49 -4 3 -2 6
4 6 7 0 54 79 59 100 0 3 6 18 13 34 6 16 13 36 14 45 1 9 6 21 10 27 3 6 8
25 9 43 1 17 6 31 10 31 4 0 3 11 -2 25 -5 14 -6 25 -2 25 4 0 7 26 6 58 -1
31 -3 57 -4 57 -1 0 -3 15 -5 33 -2 19 -7 41 -11 50 -4 10 -8 19 -8 22 -3 12
-30 76 -35 80 -4 3 -13 18 -20 33 -19 36 -115 137 -131 137 -6 0 -9 4 -6 8 3
5 -14 19 -37 32 -23 13 -46 29 -50 37 -4 7 -17 13 -27 13 -11 0 -20 4 -20 8 0
10 -51 37 -63 34 -4 -1 -15 4 -23 13 -9 8 -26 15 -40 15 -13 0 -24 5 -24 10 0
6 -8 10 -18 10 -10 0 -23 5 -28 10 -6 6 -24 12 -41 13 -17 1 -29 6 -26 11 3 5
0 6 -8 4 -8 -3 -28 1 -45 8 -18 7 -45 16 -60 19 -28 5 -38 7 -109 21 -16 4
-38 7 -47 8 -10 0 -18 3 -18 6 0 3 -12 5 -27 6 -25 1 -115 12 -153 19 -36 7
-136 19 -142 17 -5 -1 -8 3 -8 9 0 5 -4 8 -9 4 -6 -3 -29 -1 -53 5 -24 6 -54
13 -68 16 -23 4 -46 11 -95 30 -11 4 -28 9 -37 10 -9 2 -46 17 -83 34 -36 16
-70 30 -75 30 -6 0 -10 3 -10 8 0 4 -18 16 -41 26 -22 11 -51 30 -65 42 -13
13 -24 20 -24 16 0 -4 -10 4 -23 18 -12 14 -37 38 -55 53 -19 15 -31 27 -27
27 4 0 -5 14 -20 32 -34 40 -74 123 -81 168 -9 54 -10 180 -2 180 5 0 7 3 7 8
-1 4 0 10 1 15 1 4 3 10 4 15 16 60 29 92 41 102 8 7 15 18 15 24 0 7 16 29
35 49 19 20 32 37 29 37 -5 0 27 28 80 70 10 8 27 24 37 34 11 11 19 16 19 10
0 -5 4 -4 8 2 4 6 28 21 55 33 26 13 47 27 47 32 0 6 4 8 9 5 4 -3 26 3 47 13
31 15 124 47 167 57 4 1 8 3 10 4 4 4 106 18 187 26 78 7 131 7 230 -2 41 -3
83 -6 93 -7 9 -1 17 -4 17 -7 0 -3 19 -6 42 -8 23 -1 45 -6 48 -10 5 -7 24
-13 52 -15 10 -1 18 -5 18 -9 0 -4 11 -8 25 -8 14 0 25 -5 25 -12 0 -6 3 -8 6
-5 4 3 16 1 28 -5 11 -7 23 -13 26 -14 36 -9 180 -101 180 -115 0 -5 6 -9 13
-9 6 0 40 -29 75 -64 67 -68 87 -75 133 -43 13 10 20 17 15 17 -5 0 -4 6 2 13
7 8 6 21 -3 43 -14 34 -74 101 -87 97 -4 -2 -8 3 -8 10 -1 13 -121 107 -138
107 -6 0 -12 3 -14 8 -11 26 -310 147 -355 143 -2 0 -17 5 -35 10 -35 10 -114
21 -160 23 -16 1 -28 3 -28 6 0 6 -170 7 -176 1z m-565 -2295 c61 -5 88 -9
154 -21 54 -10 82 -16 99 -21 10 -3 30 -7 44 -10 15 -3 32 -6 38 -7 6 -1 13
-4 16 -7 4 -5 76 -25 120 -35 8 -2 15 -4 15 -5 0 -2 38 -11 53 -12 6 -1 12 -5
12 -10 0 -4 9 -8 20 -8 11 0 20 -3 20 -7 0 -5 12 -9 26 -10 15 0 36 -6 48 -11
26 -13 89 -37 96 -37 17 -1 236 -90 242 -99 6 -8 8 -8 8 0 0 7 20 2 48 -11 26
-13 65 -29 87 -36 22 -8 43 -18 46 -22 3 -5 10 -8 15 -8 18 1 44 -11 44 -20 0
-5 -11 -15 -25 -21 -14 -6 -25 -15 -25 -20 0 -4 -3 -7 -7 -6 -5 1 -21 -5 -38
-14 -36 -18 -137 -53 -147 -50 -5 1 -8 -2 -8 -6 0 -5 -6 -9 -12 -10 -7 0 -23
-3 -34 -5 -30 -7 -93 -18 -129 -22 -44 -5 -255 -5 -290 -1 -51 7 -177 36 -189
43 -6 4 -13 8 -16 9 -3 0 -18 6 -33 12 -16 7 -33 12 -38 12 -5 0 -9 5 -9 11 0
5 -4 8 -8 5 -5 -3 -40 13 -78 36 -38 22 -75 41 -81 41 -7 0 -13 4 -13 9 0 5
-10 13 -22 19 -35 15 -153 105 -192 145 -32 33 -65 74 -61 74 4 0 -1 10 -9 22
-19 27 -21 97 -3 103 6 3 22 6 34 8 12 2 25 5 27 8 5 5 51 3 155 -5z"/>
</g>
</svg>
